# xmcd
#
# Track frame offsets:
#   150
#   30209
#   50912
#   77300
#   104356
#   115248
#   137714
#   160953
#
# Disc length: 2433 seconds
#
# Revision: 0
# Processed by: cddbd v1.5.2PL0 Copyright (c) Steve Scherf et al.
# Submitted via: uFREEDB ActiveX Control 1.5
#
DISCID=5d097f08
DTITLE=Homesick James and Snooky Pryor - Shakey Your Moneymaker
DYEAR=1973
DGENRE=Blues
TTITLE0=Boogie Fool
TTITLE1=Crying Shame
TTITLE2=Work With Me Annie
TTITLE3=After You There Won't Be Nobody
TTITLE4=Bobby's Rock
TTITLE5=I Believed My Time Ain't Long
TTITLE6=Tin Pan Alley
TTITLE7=Shakey Your Moneymaker
EXTD=
EXTT0=
EXTT1=
EXTT2=
EXTT3=
EXTT4=
EXTT5=
EXTT6=
EXTT7=
PLAYORDER=
